<svg width="70" height="70" viewBox="0 0 70 70" fill="none" xmlns="http://www.w3.org/2000/svg">
<g style="mix-blend-mode:overlay" opacity="0.2">
<circle cx="35" cy="35" r="25.5" stroke="url(#paint0_linear)"/>
</g>
<g style="mix-blend-mode:overlay" opacity="0.2">
<circle cx="35" cy="35" r="34.5" stroke="url(#paint1_linear)"/>
</g>
<path d="M37.9297 24.8633C37.6062 24.8633 37.3438 25.1258 37.3438 25.4492C37.3438 25.7727 37.6062 26.0352 37.9297 26.0352C38.2531 26.0352 38.5156 25.7727 38.5156 25.4492C38.5156 25.1258 38.2531 24.8633 37.9297 24.8633Z" fill="white"/>
<path d="M32.0703 24.8633C31.7469 24.8633 31.4844 25.1258 31.4844 25.4492C31.4844 25.7727 31.7469 26.0352 32.0703 26.0352C32.3938 26.0352 32.6562 25.7727 32.6562 25.4492C32.6562 25.1258 32.3938 24.8633 32.0703 24.8633Z" fill="white"/>
<path d="M47.722 37.5126C48.225 36.7578 48.4766 35.816 48.4766 35C48.4766 33.7698 47.9301 32.6268 46.9923 31.8517C47.1998 31.3558 47.3047 30.84 47.3047 30.3125C47.3047 28.6804 46.3522 27.16 44.936 26.45C45.1509 24.6679 43.9897 23.0345 42.2688 22.6178C41.5953 21.0608 40.0962 20 38.5156 20C37.0443 20 35.7247 20.8582 35 22.1103C34.2752 20.8582 32.9556 20 31.4844 20C29.9037 20 28.4046 21.0608 27.7312 22.6179C26 23.0371 24.8497 24.6788 25.064 26.45C23.6479 27.1599 22.6953 28.6804 22.6953 30.3125C22.6953 30.84 22.8002 31.3558 23.0077 31.8517C22.0699 32.6268 21.5234 33.7698 21.5234 35C21.5234 35.8203 21.7771 36.7609 22.2779 37.5126C21.7886 38.2034 21.5234 39.0221 21.5234 39.8633C21.5234 40.9541 21.9657 41.9932 22.748 42.7647C22.3458 45.1959 24.2847 47.6562 26.7969 47.6562C26.815 47.6562 26.8329 47.656 26.8504 47.6554C27.6833 49.0923 29.2294 50 30.8984 50C32.638 50 34.1923 48.9559 35 47.4515C35.8077 48.9559 37.362 50 39.1016 50C40.7706 50 42.3167 49.0923 43.1496 47.6554C43.1671 47.656 43.185 47.6562 43.2031 47.6562C45.4264 47.6562 47.3047 45.6975 47.3047 43.3789C47.3047 43.1815 47.2873 42.9785 47.252 42.7647C48.0343 41.9932 48.4766 40.9541 48.4766 39.8633C48.4766 39.0221 48.2114 38.2034 47.722 37.5126ZM34.4141 28.87C34.0691 28.6699 33.6689 28.5547 33.2422 28.5547C32.9186 28.5547 32.6562 28.817 32.6562 29.1406C32.6562 29.4642 32.9186 29.7266 33.2422 29.7266C33.8884 29.7266 34.4141 30.2523 34.4141 30.8984V42.0412C33.5544 41.0661 32.2975 40.4492 30.8984 40.4492C30.5748 40.4492 30.3125 40.7115 30.3125 41.0352C30.3125 41.3588 30.5748 41.6211 30.8984 41.6211C32.837 41.6211 34.4141 43.1982 34.4141 45.1367C34.4141 47.1376 32.8041 48.8281 30.8984 48.8281C29.5419 48.8281 28.2931 48.0259 27.7169 46.7844C27.6106 46.5556 27.37 46.4206 27.1192 46.4489C27.0778 46.4536 27.0366 46.4591 26.9954 46.4647C25.3278 46.6928 23.4499 44.8045 23.9582 42.6921C24.0104 42.4751 23.9349 42.2474 23.7634 42.1047C23.0846 41.5399 22.6953 40.7229 22.6953 39.8633C22.6953 39.3318 22.8456 38.8116 23.1253 38.3555C23.828 38.9315 24.7022 39.2773 25.625 39.2773C25.9486 39.2773 26.2109 39.015 26.2109 38.6914C26.2109 38.3678 25.9486 38.1055 25.625 38.1055C24.0348 38.1055 22.6953 36.6541 22.6953 35C22.6953 33.9966 23.2068 33.0735 24.0636 32.5307C24.3276 32.3635 24.4139 32.0186 24.2597 31.7468C23.9993 31.2874 23.8672 30.8049 23.8672 30.3125C23.8672 28.7311 25.1564 27.207 26.7969 27.207C28.3576 27.207 29.7266 28.6582 29.7266 30.3125C29.7266 30.6361 29.9889 30.8984 30.3125 30.8984C30.6361 30.8984 30.8984 30.6361 30.8984 30.3125C30.8984 27.9939 29.0202 26.0352 26.7969 26.0352C26.6007 26.0352 26.4056 26.051 26.2124 26.0811C26.2121 26.0657 26.2109 26.0507 26.2109 26.0352C26.2109 24.7275 27.2725 23.6914 28.5547 23.6914C29.1806 23.6914 29.7693 23.9352 30.2124 24.3778C30.4413 24.6065 30.8123 24.6063 31.0411 24.3774C31.2697 24.1484 31.2696 23.7775 31.0406 23.5488C30.5061 23.0148 29.83 22.6743 29.0973 22.5614C29.614 21.7944 30.4733 21.1719 31.4844 21.1719C33.0451 21.1719 34.4141 22.623 34.4141 24.2773V28.87ZM44.375 39.2773C45.2979 39.2773 46.172 38.9315 46.8748 38.3557C47.1544 38.8118 47.3047 39.3318 47.3047 39.8633C47.3047 40.7229 46.9154 41.5399 46.2367 42.1047C46.0651 42.2474 45.9896 42.4752 46.0418 42.6921C46.1039 42.9501 46.1328 43.1683 46.1328 43.3788C46.1328 45.1976 44.4878 46.6675 43.0047 46.4647C42.9635 46.4591 42.9222 46.4536 42.8808 46.4489C42.6296 46.4205 42.3893 46.5556 42.2832 46.7844C41.707 48.0259 40.4581 48.8281 39.1016 48.8281C37.1959 48.8281 35.5859 47.1376 35.5859 45.1367C35.5859 43.1982 37.163 41.6211 39.1016 41.6211C39.4251 41.6211 39.6875 41.3588 39.6875 41.0352C39.6875 40.7115 39.4251 40.4492 39.1016 40.4492C37.7025 40.4492 36.4456 41.0661 35.5859 42.0412V30.8984C35.5859 30.2523 36.1116 29.7266 36.7578 29.7266C37.0814 29.7266 37.3438 29.4642 37.3438 29.1406C37.3438 28.817 37.0814 28.5547 36.7578 28.5547C36.3311 28.5547 35.9309 28.6699 35.5859 28.87V24.2773C35.5859 22.623 36.9549 21.1719 38.5156 21.1719C39.5267 21.1719 40.3859 21.7944 40.9027 22.5614C40.17 22.6742 39.494 23.0148 38.9594 23.5487C38.7304 23.7774 38.7301 24.1484 38.9588 24.3774C39.1875 24.6063 39.5586 24.6065 39.7875 24.3778C40.2307 23.9352 40.8194 23.6914 41.4453 23.6914C42.734 23.6914 43.7891 24.7336 43.7891 26.0352C43.7891 26.0506 43.7879 26.0657 43.7876 26.0811C43.5944 26.051 43.3993 26.0352 43.2031 26.0352C40.9798 26.0352 39.1016 27.9939 39.1016 30.3125C39.1016 30.6361 39.3639 30.8984 39.6875 30.8984C40.0111 30.8984 40.2734 30.6361 40.2734 30.3125C40.2734 28.6582 41.6424 27.207 43.2031 27.207C44.8427 27.207 46.1328 28.7303 46.1328 30.3125C46.1328 30.8049 46.0007 31.2874 45.7403 31.7468C45.5862 32.0186 45.6725 32.3635 45.9365 32.5307C46.7932 33.0735 47.3047 33.9966 47.3047 35C47.3047 36.66 45.9605 38.1055 44.375 38.1055C44.0514 38.1055 43.7891 38.3678 43.7891 38.6914C43.7891 39.015 44.0514 39.2773 44.375 39.2773Z" fill="white"/>
<path d="M33.0929 32.5422C32.8772 32.301 32.5068 32.2804 32.2656 32.4961C30.3866 34.1769 27.3828 32.8336 27.3828 30.3125C27.3828 29.9889 27.1205 29.7266 26.7969 29.7266C26.4733 29.7266 26.2109 29.9889 26.2109 30.3125C26.2109 32.3466 27.6996 34.0388 29.6445 34.3588C29.4189 35.0694 28.7531 35.5859 27.9687 35.5859C27.6451 35.5859 27.3828 35.8483 27.3828 36.1719C27.3828 36.4955 27.6451 36.7578 27.9687 36.7578C29.3959 36.7578 30.5873 35.7318 30.8458 34.3788C31.6607 34.2722 32.4276 33.9235 33.0469 33.3695C33.2881 33.1538 33.3087 32.7833 33.0929 32.5422Z" fill="white"/>
<path d="M26.7969 42.793C26.4733 42.793 26.2109 43.0553 26.2109 43.3789C26.2109 43.7025 26.4733 43.9648 26.7969 43.9648C28.3576 43.9648 29.7266 45.416 29.7266 47.0703C29.7266 47.3939 29.9889 47.6562 30.3125 47.6562C30.6361 47.6562 30.8984 47.3939 30.8984 47.0703C30.8984 44.7518 29.0202 42.793 26.7969 42.793Z" fill="white"/>
<path d="M31.4845 38.1055C29.499 38.1055 27.7943 39.1944 26.8966 40.7778C26.737 41.0594 26.8359 41.417 27.1174 41.5765C27.3989 41.7361 27.7565 41.6373 27.9161 41.3557C28.6154 40.122 29.9423 39.2773 31.4845 39.2773C31.8081 39.2773 32.0704 39.015 32.0704 38.6914C32.0704 38.3678 31.8081 38.1055 31.4845 38.1055Z" fill="white"/>
<path d="M42.0313 35.5859C41.2469 35.5859 40.5811 35.0694 40.3555 34.3588C42.3004 34.0388 43.7891 32.3466 43.7891 30.3125C43.7891 29.9889 43.5267 29.7266 43.2031 29.7266C42.8796 29.7266 42.6172 29.9889 42.6172 30.3125C42.6172 31.9279 41.3029 33.2422 39.6875 33.2422C38.9659 33.2422 38.2723 32.9772 37.7344 32.4961C37.4933 32.2804 37.1228 32.3009 36.9071 32.5422C36.6913 32.7833 36.7119 33.1538 36.9531 33.3695C37.5724 33.9235 38.3394 34.2722 39.1542 34.3788C39.4127 35.7318 40.6041 36.7578 42.0313 36.7578C42.3548 36.7578 42.6172 36.4955 42.6172 36.1719C42.6172 35.8483 42.3548 35.5859 42.0313 35.5859Z" fill="white"/>
<path d="M43.2031 42.793C40.9798 42.793 39.1016 44.7518 39.1016 47.0703C39.1016 47.3939 39.3639 47.6562 39.6875 47.6562C40.0111 47.6562 40.2734 47.3939 40.2734 47.0703C40.2734 45.416 41.6424 43.9648 43.2031 43.9648C43.5267 43.9648 43.7891 43.7025 43.7891 43.3789C43.7891 43.0553 43.5267 42.793 43.2031 42.793Z" fill="white"/>
<path d="M43.1035 40.7779C42.2081 39.1982 40.5057 38.1055 38.5156 38.1055C38.1921 38.1055 37.9297 38.3678 37.9297 38.6914C37.9297 39.015 38.1921 39.2773 38.5156 39.2773C40.0567 39.2773 41.3846 40.1217 42.0839 41.3557C42.2437 41.6376 42.6015 41.7359 42.8826 41.5766C43.1642 41.417 43.263 41.0594 43.1035 40.7779Z" fill="white"/>
<defs>
<linearGradient id="paint0_linear" x1="-18" y1="-11" x2="50" y2="54.5" gradientUnits="userSpaceOnUse">
<stop stop-color="white"/>
<stop offset="1" stop-color="white" stop-opacity="0"/>
</linearGradient>
<linearGradient id="paint1_linear" x1="-36.3462" y1="-26.9231" x2="55.1923" y2="61.25" gradientUnits="userSpaceOnUse">
<stop stop-color="white"/>
<stop offset="1" stop-color="white" stop-opacity="0"/>
</linearGradient>
</defs>
</svg>
