<svg width="70" height="70" viewBox="0 0 70 70" fill="none" xmlns="http://www.w3.org/2000/svg">
<g style="mix-blend-mode:overlay" opacity="0.2">
<circle cx="35" cy="35" r="25.5" stroke="url(#paint0_linear)"/>
</g>
<g style="mix-blend-mode:overlay" opacity="0.2">
<circle cx="35" cy="35" r="34.5" stroke="url(#paint1_linear)"/>
</g>
<path fill-rule="evenodd" clip-rule="evenodd" d="M44.5334 23.6076C44.2262 23.5062 43.8948 23.6731 43.7934 23.9805C43.692 24.2876 43.8589 24.6191 44.166 24.7205C46.9545 25.6408 48.8281 28.2336 48.8281 31.172C48.8281 33.9419 47.1719 36.4104 44.6087 37.4605C44.6085 37.4607 44.608 37.4609 44.6075 37.4612C44.6071 37.4614 44.6066 37.4614 44.6062 37.4616C43.7914 37.8001 42.9504 37.9647 42.0354 37.9647C41.712 37.9647 41.4494 38.227 41.4494 38.5506C41.4494 38.8743 41.712 39.1366 42.0354 39.1366C42.6426 39.1366 43.223 39.0743 43.7865 38.9478C43.2883 39.9299 42.3586 41.4286 40.7834 42.9076C38.3238 45.2168 33.7604 47.9119 25.9578 47.6931C25.6149 47.4345 24.6152 46.6059 23.6271 45.0761C22.5069 43.3421 21.1719 40.3231 21.1719 35.789C21.1719 31.2347 21.5422 28.1722 22.3376 26.1507C23.0778 24.2696 24.1991 23.2327 25.9734 22.7892C28.7286 22.1004 29.847 22.4568 30.2997 22.877C30.7254 23.2721 30.8513 23.9942 30.6744 25.024C30.432 26.4318 30.0282 27.2865 29.4036 27.7133C28.7703 28.1461 27.7943 28.2203 26.4201 27.9399C25.8834 27.8232 25.2185 27.6428 24.6838 27.4686C24.3762 27.3682 24.0455 27.5366 23.9452 27.8442C23.845 28.1519 24.0132 28.4826 24.3208 28.5828C24.7472 28.7218 25.2512 28.8644 25.7182 28.9795C25.7573 30.4839 26.116 35.0705 28.9729 37.1588C28.2505 39.3243 28.4949 40.9161 28.5064 40.9871C28.5529 41.2748 28.8017 41.4794 29.0841 41.4794C29.1152 41.4794 29.1466 41.4771 29.1784 41.4719C29.4979 41.4201 29.7149 41.1194 29.6632 40.7999C29.6606 40.7843 29.4226 39.2318 30.2258 37.135C30.2262 37.1339 30.2264 37.1325 30.2269 37.1313C30.2274 37.13 30.2278 37.1291 30.2283 37.1279C30.9504 35.1675 32.2637 33.5148 34.1385 32.2042C34.2882 33.3559 34.6862 34.461 35.3133 35.4456C35.425 35.621 35.6145 35.7169 35.8082 35.7169C35.9158 35.7169 36.0247 35.6871 36.1224 35.6251C36.3953 35.4511 36.4756 35.089 36.3017 34.816C35.6088 33.7283 35.2426 32.4683 35.2426 31.172C35.2426 31.1715 35.2426 31.1713 35.2426 31.171C35.2431 28.2331 37.1162 25.6408 39.9045 24.7205C40.2116 24.6191 40.3787 24.2876 40.2771 23.9803C40.1757 23.6731 39.8441 23.5062 39.5371 23.6076C36.3731 24.652 34.2138 27.5325 34.0776 30.8394C31.916 32.1944 30.3519 33.9327 29.4162 36.0178C27.3661 34.274 26.9749 30.7055 26.9024 29.2102C28.2599 29.3922 29.2761 29.2198 30.0646 28.681C30.9811 28.0546 31.5253 26.988 31.8291 25.2224C32.0776 23.7777 31.8314 22.6997 31.0966 22.0181C30.1157 21.1076 28.3469 20.9879 25.6891 21.6523C23.5392 22.1897 22.1277 23.4827 21.2469 25.7216C20.3962 27.8843 20 31.0831 20 35.789C20 40.6479 21.4591 43.901 22.6832 45.7742C24.0295 47.8343 25.3856 48.7279 25.4428 48.7647C25.5321 48.8229 25.6355 48.8554 25.742 48.8588C26.115 48.8714 26.4842 48.8776 26.85 48.8776C30.0697 48.8773 32.9987 48.3946 35.5695 47.4388C37.8759 46.5814 39.8999 45.3443 41.5854 43.7618C43.9919 41.5025 45.0063 39.2062 45.2974 38.4401C48.163 37.1552 50 34.3307 50 31.172C50 27.7268 47.8032 24.687 44.5334 23.6076Z" fill="white"/>
<path fill-rule="evenodd" clip-rule="evenodd" d="M42.0352 24.3792C42.3579 24.3792 42.6211 24.116 42.6211 23.7933C42.6211 23.4705 42.3579 23.2073 42.0352 23.2073C41.7124 23.2073 41.4492 23.4705 41.4492 23.7933C41.4492 24.116 41.7124 24.3792 42.0352 24.3792Z" fill="white"/>
<defs>
<linearGradient id="paint0_linear" x1="-18" y1="-11" x2="50" y2="54.5" gradientUnits="userSpaceOnUse">
<stop stop-color="white"/>
<stop offset="1" stop-color="white" stop-opacity="0"/>
</linearGradient>
<linearGradient id="paint1_linear" x1="-36.3462" y1="-26.9231" x2="55.1923" y2="61.25" gradientUnits="userSpaceOnUse">
<stop stop-color="white"/>
<stop offset="1" stop-color="white" stop-opacity="0"/>
</linearGradient>
</defs>
</svg>
