<svg width="70" height="70" viewBox="0 0 70 70" fill="none" xmlns="http://www.w3.org/2000/svg">
<g style="mix-blend-mode:overlay" opacity="0.2">
<circle cx="35" cy="35" r="25.5" stroke="url(#paint0_linear)"/>
</g>
<g style="mix-blend-mode:overlay" opacity="0.2">
<circle cx="35" cy="35" r="34.5" stroke="url(#paint1_linear)"/>
</g>
<path d="M26.4453 43.7891H24.6095L26.9754 38.7653C27.0609 38.5838 27.0475 38.3711 26.9401 38.2017C26.8326 38.0323 26.6459 37.9297 26.4453 37.9297H20.5859C20.2624 37.9297 20 38.192 20 38.5156V40.8594C20 41.183 20.2624 41.4453 20.5859 41.4453H21.5756L20.0764 44.0857C20.0263 44.1739 20 44.2736 20 44.375V46.7188C20 47.0424 20.2624 47.3047 20.5859 47.3047H26.4453C26.7689 47.3047 27.0313 47.0424 27.0313 46.7188V44.375C27.0313 44.0514 26.7689 43.7891 26.4453 43.7891ZM25.8594 46.1328H21.1719V44.5297L23.0916 41.1487C23.1946 40.9672 23.1934 40.7448 23.0884 40.5645C22.9835 40.3843 22.7906 40.2734 22.582 40.2734H21.1719V39.1015H25.5217L23.1557 44.1253C23.0703 44.3068 23.0836 44.5194 23.1911 44.6888C23.2985 44.8582 23.4852 44.9609 23.6858 44.9609H25.8594V46.1328Z" fill="white"/>
<path d="M37.0508 30.3125H28.2617C27.9382 30.3125 27.6758 30.5748 27.6758 30.8984V33.8281C27.6758 34.1517 27.9382 34.4141 28.2617 34.4141H32.0022L27.7962 39.9177C27.7181 40.0198 27.6758 40.1448 27.6758 40.2734V43.2031C27.6758 43.5267 27.9382 43.7891 28.2617 43.7891H37.0508C37.3743 43.7891 37.6367 43.5267 37.6367 43.2031V40.2734C37.6367 39.9498 37.3743 39.6875 37.0508 39.6875H33.1589L37.5102 34.1919C37.5921 34.0883 37.6367 33.9602 37.6367 33.8281V30.8984C37.6367 30.5748 37.3743 30.3125 37.0508 30.3125ZM36.4648 33.6243L31.4882 39.9097C31.3487 40.0859 31.3222 40.3263 31.4201 40.5286C31.5179 40.7309 31.7229 40.8594 31.9476 40.8594H36.4648V42.6172H28.8477V40.4717L33.653 34.1839C33.7884 34.0068 33.8115 33.7682 33.7128 33.5684C33.614 33.3686 33.4104 33.2422 33.1875 33.2422H28.8477V31.4844H36.4648V33.6243Z" fill="white"/>
<path d="M47.2537 29.0562C47.1687 29.1875 47.1395 29.3445 47.1723 29.4975C47.2051 29.6504 47.2953 29.7816 47.4271 29.8666C47.5221 29.9281 47.6322 29.9609 47.7447 29.9609C47.9445 29.9609 48.1291 29.8607 48.2375 29.6932V29.6926L49.9057 27.115C49.9684 27.0189 50 26.9117 50 26.7969V23.2812C50 23.1271 49.9373 22.976 49.8283 22.867C49.7193 22.758 49.5682 22.6953 49.4141 22.6953H38.8672C38.7131 22.6953 38.5619 22.758 38.4529 22.867C38.3439 22.976 38.2812 23.1271 38.2812 23.2812V26.7969C38.2812 26.951 38.3439 27.1021 38.4529 27.2111C38.562 27.3201 38.7131 27.3828 38.8672 27.3828H43.8453L38.3855 35.252C38.3176 35.3504 38.2812 35.4658 38.2812 35.5859V39.1016C38.2812 39.2557 38.3439 39.4068 38.4529 39.5158C38.562 39.6248 38.7131 39.6875 38.8672 39.6875H49.4141C49.5682 39.6875 49.7193 39.6248 49.8283 39.5158C49.9372 39.4068 50 39.2557 50 39.1016V35.5859C50 35.4318 49.9373 35.2807 49.8283 35.1717C49.7193 35.0627 49.5682 35 49.4141 35H44.8021L45.3717 34.1199C45.4566 33.9887 45.4854 33.8322 45.4525 33.6793C45.4197 33.5258 45.3295 33.3951 45.1982 33.3096C45.1033 33.248 44.9932 33.2158 44.8801 33.2158C44.6803 33.2158 44.4962 33.3154 44.3879 33.483L43.233 35.2672C43.1164 35.4477 43.1076 35.6773 43.2102 35.866C43.3127 36.0547 43.5102 36.1719 43.7252 36.1719H48.8281V38.5156H39.4531V35.7693L45.4461 27.1309C45.5709 26.951 45.5855 26.7189 45.4836 26.525C45.3822 26.3316 45.1836 26.2109 44.9645 26.2109H39.4531V23.8672H48.8281V26.624L47.2537 29.0562Z" fill="white"/>
<path d="M46.3125 32.174C46.6361 32.174 46.8984 31.9117 46.8984 31.5881C46.8984 31.2645 46.6361 31.0022 46.3125 31.0022C45.9889 31.0022 45.7266 31.2645 45.7266 31.5881C45.7266 31.9117 45.9889 32.174 46.3125 32.174Z" fill="white"/>
<defs>
<linearGradient id="paint0_linear" x1="-18" y1="-11" x2="50" y2="54.5" gradientUnits="userSpaceOnUse">
<stop stop-color="white"/>
<stop offset="1" stop-color="white" stop-opacity="0"/>
</linearGradient>
<linearGradient id="paint1_linear" x1="-36.3462" y1="-26.9231" x2="55.1923" y2="61.25" gradientUnits="userSpaceOnUse">
<stop stop-color="white"/>
<stop offset="1" stop-color="white" stop-opacity="0"/>
</linearGradient>
</defs>
</svg>
