<svg width="30" height="31" viewBox="0 0 30 31" fill="none" xmlns="http://www.w3.org/2000/svg">
<g clip-path="url(#clip0)">
<path d="M28.1955 22.2838L27.1304 20.603C26.9568 20.3289 26.5943 20.2478 26.3202 20.4211C26.0464 20.5947 25.9652 20.9575 26.1386 21.2314L27.2038 22.9123C27.3933 23.2114 27.3479 23.6088 27.0958 23.8576C26.9369 24.0145 26.7183 24.0929 26.4957 24.073C26.2732 24.0528 26.0721 23.9368 25.9434 23.754L21.3525 17.2247L19.5323 12.8826V12.3723C19.5323 12.0483 19.2695 11.7853 18.9452 11.7853C18.6212 11.7853 18.3581 12.0483 18.3581 12.3723V20.1959H11.7465V13.008C11.7465 13.0062 11.7465 13.0042 11.7465 13.0021V12.3723C11.7465 12.0483 11.4837 11.7853 11.1595 11.7853C10.8352 11.7853 10.5724 12.0483 10.5724 12.3723V12.8886L8.75494 17.2247L4.16376 23.754C4.03534 23.9365 3.83398 24.0528 3.61153 24.0728C3.38931 24.0927 3.1703 24.0145 3.01138 23.8574C2.75934 23.6088 2.71394 23.2114 2.90336 22.9121L6.98337 16.4735C7.00882 16.4335 7.02901 16.3911 7.04414 16.3464L8.78888 11.1578C9.40349 9.32983 11.1125 8.10177 13.0409 8.10177H17.0663C18.995 8.10177 20.7037 9.32983 21.3183 11.1578L23.0633 16.3464C23.0782 16.3911 23.0986 16.4335 23.1238 16.4735L23.921 17.7318C24.0329 17.9081 24.223 18.0047 24.4175 18.0047C24.525 18.0047 24.6337 17.9751 24.7312 17.9134C25.005 17.7398 25.0864 17.377 24.9128 17.1032L24.1535 15.9049L22.4313 10.7836C21.7256 8.68472 19.8767 7.21312 17.716 6.96498C18.3549 6.30038 18.7491 5.39866 18.7491 4.40612V3.63672C18.7491 1.59912 17.0913 -0.0587006 15.0535 -0.0587006C13.0159 -0.0587006 11.3581 1.59912 11.3581 3.63672V4.40612C11.3581 5.39866 11.7521 6.30038 12.3912 6.96498C10.2304 7.21312 8.38159 8.68472 7.67572 10.7836L5.95368 15.9049L1.91151 22.2838C1.42831 23.046 1.54413 24.0595 2.18671 24.6933C2.47842 24.9811 2.84924 25.1653 3.24552 25.2267C3.24529 25.2274 3.24506 25.2279 3.24506 25.2283C2.93478 26.0583 2.94671 26.9678 3.27855 27.7893C3.82848 29.1508 5.14667 30 6.55682 30C6.86045 30 7.16867 29.9606 7.47413 29.8782L15.0535 27.8381L22.6328 29.8782C22.9383 29.9606 23.2463 30 23.5501 30C24.9598 29.9998 26.2783 29.1506 26.8282 27.7893C27.16 26.9678 27.172 26.0583 26.8619 25.2283C26.8617 25.2279 26.8614 25.2274 26.8612 25.2267C27.2575 25.1653 27.6283 24.9811 27.9203 24.6933C28.5628 24.0597 28.6787 23.0463 28.1955 22.2838ZM12.5322 3.63672C12.5322 2.24652 13.6633 1.11547 15.0537 1.11547C16.4439 1.11547 17.575 2.24652 17.575 3.63672V4.40612C17.575 5.79655 16.4439 6.9276 15.0537 6.9276C13.6633 6.9276 12.5322 5.79632 12.5322 4.40612V3.63672ZM20.2939 17.7373C20.3102 17.7763 20.3308 17.8137 20.3551 17.8481L23.6664 22.5571L19.5323 20.4491V15.9201L20.2939 17.7373ZM9.75207 17.8481C9.77638 17.8137 9.79679 17.7763 9.81307 17.7373L10.5724 15.926V20.4505L6.44055 22.5571L9.75207 17.8481ZM25.7398 27.3496C25.2933 28.4546 24.0888 29.0543 22.9381 28.7447L16.9987 27.1458C17.4745 26.7706 17.771 26.1904 17.771 25.557C17.771 25.535 17.7699 25.5132 17.7692 25.4914L21.4394 26.3583C21.4848 26.369 21.5302 26.3741 21.5749 26.3741C21.841 26.3741 22.082 26.192 22.1457 25.9218C22.2203 25.6063 22.0249 25.29 21.7093 25.2155L17.3188 24.1785C17.2839 24.1702 17.2489 24.1659 17.214 24.164C17.1489 24.0959 17.0792 24.031 17.0037 23.9714C16.5161 23.5857 15.8894 23.4465 15.2842 23.5891L8.39787 25.2155C8.08232 25.29 7.88693 25.6063 7.96146 25.9218C8.03599 26.2374 8.35201 26.4328 8.6678 26.3583L15.5539 24.7318C15.808 24.6718 16.0708 24.7302 16.2751 24.8921C16.4797 25.0541 16.5969 25.2965 16.5969 25.557C16.5969 25.9397 16.3386 26.2764 15.9692 26.3759L14.9239 26.6573C14.9115 26.66 14.8996 26.6635 14.8877 26.6669L7.16913 28.7444C6.01835 29.0543 4.81391 28.4546 4.3674 27.3496C3.90599 26.2069 4.38575 24.9229 5.48355 24.3631L11.3537 21.3701H18.7535L24.6236 24.3631C25.7214 24.9231 26.2014 26.2069 25.7398 27.3496Z" fill="white"/>
<path d="M25.0463 19.5371C25.161 19.652 25.3114 19.7095 25.4621 19.7095C25.6121 19.7095 25.7621 19.6524 25.8767 19.538L25.8985 19.5164C26.1281 19.2873 26.1285 18.9156 25.8994 18.686C25.6706 18.4565 25.2988 18.456 25.0693 18.6849L25.0475 18.7067C24.8179 18.9358 24.8175 19.3075 25.0463 19.5371Z" fill="white"/>
</g>
<defs>
<clipPath id="clip0">
<rect width="30" height="30.0586" fill="white"/>
</clipPath>
</defs>
</svg>

