<svg width="171" height="44" viewBox="0 0 171 44" fill="none" xmlns="http://www.w3.org/2000/svg">
<path d="M7.43 16.495V16.985H13.625V16.915C13.6483 16.355 13.66 15.655 13.66 14.815C13.66 13.9517 13.6483 13.205 13.625 12.575C13.6017 11.9217 13.5783 11.3733 13.555 10.93C13.5317 10.4867 13.4967 10.1017 13.45 9.775C13.4267 9.44833 13.4033 9.20333 13.38 9.04C13.3567 8.85333 13.345 8.69 13.345 8.55C13.345 8.41 13.4733 8.24667 13.73 8.06C14.85 7.31333 16.0983 6.94 17.475 6.94C18.3383 6.94 18.77 7.09167 18.77 7.395C18.77 7.41833 18.7467 7.54667 18.7 7.78C18.2567 9.99667 17.9767 13.065 17.86 16.985C17.79 20.905 17.755 23.005 17.755 23.285C17.755 26.9017 17.965 29.41 18.385 30.81C18.455 30.9967 18.49 31.16 18.49 31.3C18.49 31.4167 18.3967 31.5567 18.21 31.72C17.3467 32.28 16.2267 32.56 14.85 32.56C13.9633 32.56 13.4617 32.2567 13.345 31.65C13.275 31.3233 13.24 30.8217 13.24 30.145C13.24 29.445 13.275 28.3833 13.345 26.96C13.4383 25.5367 13.5083 23.0517 13.555 19.505H7.43C7.43 24.825 7.59333 28.5583 7.92 30.705C7.92 31.265 7.38333 31.72 6.31 32.07C5.23667 32.4433 4.35 32.63 3.65 32.63C2.95 32.63 2.6 32.525 2.6 32.315C2.6 32.175 2.635 32 2.705 31.79C3.14833 30.81 3.37 26.8667 3.37 19.96V19.505H1.305C1.11833 19.505 1.025 19.435 1.025 19.295C1.025 19.2483 1.07167 19.0733 1.165 18.77C1.25833 18.4433 1.46833 18.07 1.795 17.65C2.145 17.23 2.53 17.02 2.95 17.02H3.335C3.335 12.4233 3.06667 9.775 2.53 9.075L2.39 8.865C2.25 8.74833 2.18 8.60833 2.18 8.445C2.18 8.25833 2.30833 8.10666 2.565 7.99C2.915 7.78 3.53333 7.57 4.42 7.36C5.33 7.15 6.14667 7.045 6.87 7.045C7.59333 7.045 7.955 7.20833 7.955 7.535V7.64C7.675 10.0667 7.5 13.0183 7.43 16.495ZM35.949 27.66C35.949 29.2933 35.424 30.5067 34.374 31.3C33.3473 32.0933 31.9007 32.49 30.034 32.49C27.0473 32.49 24.8423 31.4983 23.419 29.515C22.019 27.5317 21.319 24.9417 21.319 21.745C21.319 21.2317 21.3423 20.485 21.389 19.505H19.429C19.2423 19.505 19.149 19.435 19.149 19.295C19.149 18.8983 19.3473 18.42 19.744 17.86C20.1407 17.3 20.5723 17.02 21.039 17.02H21.704C22.0073 15.34 22.4973 13.8583 23.174 12.575C23.874 11.2917 24.5973 10.3 25.344 9.6C26.114 8.9 26.954 8.34 27.864 7.92C29.3107 7.22 30.8273 6.87 32.414 6.87C34.0007 6.87 34.9923 7.12666 35.389 7.64C35.5757 7.89666 35.669 8.375 35.669 9.075C35.669 9.75167 35.5873 10.09 35.424 10.09C35.4007 10.09 35.2957 10.0433 35.109 9.95C34.5023 9.67 33.744 9.53 32.834 9.53C30.8507 9.53 29.299 10.23 28.179 11.63C27.0823 13.03 26.3473 14.8267 25.974 17.02C27.7473 16.9967 30.1507 16.985 33.184 16.985C33.4173 16.985 33.534 17.0667 33.534 17.23C33.534 17.6033 33.3473 18.0817 32.974 18.665C32.6007 19.225 32.1807 19.505 31.714 19.505H25.694C25.6707 19.785 25.659 20.4033 25.659 21.36C25.659 22.2933 25.8223 23.285 26.149 24.335C26.499 25.3617 27.129 26.2367 28.039 26.96C28.9723 27.6833 30.174 28.045 31.644 28.045C33.114 28.045 34.3507 27.7183 35.354 27.065C35.4707 26.9717 35.5757 26.925 35.669 26.925C35.8557 26.925 35.949 27.17 35.949 27.66ZM49.1629 18.735C48.9062 18.805 48.7779 18.8867 48.7779 18.98C48.7779 19.05 49.0579 19.19 49.6179 19.4C50.1779 19.61 50.7029 19.9367 51.1929 20.38C51.7062 20.8233 52.0679 21.36 52.2779 21.99C52.6045 22.9467 52.7679 23.9733 52.7679 25.07C52.7679 26.1667 52.8495 27.0767 53.0129 27.8C53.1762 28.5 53.3745 29.0367 53.6079 29.41C54.0745 30.2033 54.5062 30.6933 54.9029 30.88L55.1479 31.02C55.2879 31.1133 55.3579 31.23 55.3579 31.37C55.3579 31.72 54.7862 32.0233 53.6429 32.28C52.4995 32.56 51.6129 32.7 50.9829 32.7C49.7462 32.7 48.9529 32.21 48.6029 31.23C48.2762 30.2267 48.1129 28.5233 48.1129 26.12V24.195C48.1129 22.165 47.5062 20.87 46.2929 20.31C45.8262 20.1 45.2662 19.995 44.6129 19.995H44.5779C44.3679 19.995 44.2629 19.7967 44.2629 19.4C44.2629 18.98 44.3795 18.56 44.6129 18.14C44.8695 17.72 45.0912 17.51 45.2779 17.51C46.0479 17.51 46.7129 17.37 47.2729 17.09C47.8329 16.7867 48.2412 16.425 48.4979 16.005C49.0345 15.1183 49.3262 14.36 49.3729 13.73V13.275C49.3729 12.4117 49.2329 11.6883 48.9529 11.105C48.6729 10.4983 48.3229 10.0783 47.9029 9.845C47.2029 9.47167 46.4912 9.285 45.7679 9.285C45.0445 9.285 44.4495 9.34333 43.9829 9.46C43.3295 9.64667 43.0029 9.845 43.0029 10.055C42.7929 13.1117 42.6879 16.0633 42.6879 18.91C42.6879 21.7333 42.7229 23.9033 42.7929 25.42C42.8862 26.9133 42.9679 28.1267 43.0379 29.06C43.1312 29.97 43.1779 30.5067 43.1779 30.67C43.1779 30.9733 43.0962 31.1833 42.9329 31.3C41.9762 32.1867 40.4712 32.63 38.4179 32.63C38.0679 32.63 37.8929 32.5133 37.8929 32.28C37.8929 32.21 37.9279 32.0467 37.9979 31.79C38.2312 31.2533 38.3945 29.55 38.4879 26.68C38.6045 23.81 38.6629 21.1967 38.6629 18.84C38.6629 16.46 38.6162 14.535 38.5229 13.065C38.3829 10.8483 38.1495 9.51833 37.8229 9.075C37.5662 8.74833 37.4379 8.52667 37.4379 8.41C37.4379 8.27 37.5662 8.13 37.8229 7.99C39.3162 7.29 42.0229 6.94 45.9429 6.94C49.0929 6.94 51.4495 7.82667 53.0129 9.6C53.8529 10.58 54.2729 11.805 54.2729 13.275C54.2729 14.1617 54.0979 14.955 53.7479 15.655C53.3979 16.355 52.9662 16.8917 52.4529 17.265C51.4729 18.0117 50.5512 18.4667 49.6879 18.63L49.1629 18.735ZM71.1541 27.66C71.1541 29.2933 70.6291 30.5067 69.5791 31.3C68.5524 32.0933 67.1057 32.49 65.2391 32.49C62.2524 32.49 60.0474 31.4983 58.6241 29.515C57.2241 27.5317 56.5241 24.9417 56.5241 21.745C56.5241 21.2317 56.5474 20.485 56.5941 19.505H54.6341C54.4474 19.505 54.3541 19.435 54.3541 19.295C54.3541 18.8983 54.5524 18.42 54.9491 17.86C55.3457 17.3 55.7774 17.02 56.2441 17.02H56.9091C57.2124 15.34 57.7024 13.8583 58.3791 12.575C59.0791 11.2917 59.8024 10.3 60.5491 9.6C61.3191 8.9 62.1591 8.34 63.0691 7.92C64.5157 7.22 66.0324 6.87 67.6191 6.87C69.2057 6.87 70.1974 7.12666 70.5941 7.64C70.7807 7.89666 70.8741 8.375 70.8741 9.075C70.8741 9.75167 70.7924 10.09 70.6291 10.09C70.6057 10.09 70.5007 10.0433 70.3141 9.95C69.7074 9.67 68.9491 9.53 68.0391 9.53C66.0557 9.53 64.5041 10.23 63.3841 11.63C62.2874 13.03 61.5524 14.8267 61.1791 17.02C62.9524 16.9967 65.3557 16.985 68.3891 16.985C68.6224 16.985 68.7391 17.0667 68.7391 17.23C68.7391 17.6033 68.5524 18.0817 68.1791 18.665C67.8057 19.225 67.3857 19.505 66.9191 19.505H60.8991C60.8757 19.785 60.8641 20.4033 60.8641 21.36C60.8641 22.2933 61.0274 23.285 61.3541 24.335C61.7041 25.3617 62.3341 26.2367 63.2441 26.96C64.1774 27.6833 65.3791 28.045 66.8491 28.045C68.3191 28.045 69.5557 27.7183 70.5591 27.065C70.6757 26.9717 70.7807 26.925 70.8741 26.925C71.0607 26.925 71.1541 27.17 71.1541 27.66ZM82.0229 32.35L76.4579 32.035C75.1279 32.035 74.0429 32.2217 73.2029 32.595C73.0396 32.665 72.8996 32.7 72.7829 32.7C72.4796 32.7 72.3279 32.315 72.3279 31.545C72.3279 30.7517 72.5496 29.8183 72.9929 28.745C73.4363 27.6483 73.9729 26.6333 74.6029 25.7C75.9329 23.67 77.0879 22.13 78.0679 21.08L78.7329 20.38C80.0163 19.0033 81.0429 17.65 81.8129 16.32C82.6063 14.99 83.0029 13.5433 83.0029 11.98C83.0029 10.51 82.4313 9.57667 81.2879 9.18C81.0313 9.08667 80.6696 9.04 80.2029 9.04C79.7363 9.01667 79.2929 9.09833 78.8729 9.285C78.4529 9.47167 78.1379 9.705 77.9279 9.985C77.5313 10.5683 77.3213 11.105 77.2979 11.595C77.2513 12.435 77.4379 12.995 77.8579 13.275L78.0329 13.415C78.5229 13.625 78.7679 13.94 78.7679 14.36V14.395C78.7679 15.025 78.5813 15.5267 78.2079 15.9C77.8346 16.25 77.4613 16.4483 77.0879 16.495L76.4929 16.565C75.7929 16.565 75.1979 16.4367 74.7079 16.18C74.2413 15.9233 73.9146 15.5967 73.7279 15.2C73.3779 14.5 73.2029 13.8 73.2029 13.1C73.2029 11.1167 73.9496 9.565 75.4429 8.445C76.9596 7.325 78.6863 6.765 80.6229 6.765C82.5596 6.765 84.1929 7.26667 85.5229 8.27C86.8529 9.27333 87.5179 10.6733 87.5179 12.47C87.5179 14.8967 86.4796 17.0317 84.4029 18.875L83.7029 19.47C80.5763 22.13 78.5229 24.3 77.5429 25.98C77.1929 26.5633 77.0179 27.0533 77.0179 27.45C77.0179 27.7067 77.2396 27.87 77.6829 27.94C78.1496 27.9867 79.0363 28.01 80.3429 28.01C83.6329 28.01 85.7679 27.4733 86.7479 26.4C86.8646 26.33 86.9813 26.295 87.0979 26.295C87.3779 26.295 87.5179 26.6917 87.5179 27.485C87.5179 28.2783 87.3546 29.13 87.0279 30.04C86.7013 30.9267 86.2229 31.5567 85.5929 31.93C85.1496 32.21 83.9596 32.35 82.0229 32.35ZM96.8785 9.32C96.4585 9.32 96.0968 9.39 95.7935 9.53C95.4902 9.67 95.3385 9.845 95.3385 10.055C95.0585 11.035 94.9185 13.9633 94.9185 18.84C94.9185 23.6933 94.9068 26.4117 94.8835 26.995C95.3268 27.695 96.0152 28.045 96.9485 28.045C98.6052 28.045 99.8535 27.135 100.694 25.315C101.534 23.4717 101.954 21.1733 101.954 18.42C101.954 15.6433 101.545 13.4383 100.729 11.805C99.9118 10.1483 98.6285 9.32 96.8785 9.32ZM90.1935 32.385C89.8435 32.3383 89.6685 32.2333 89.6685 32.07L89.7735 31.65C90.3568 30.39 90.6485 25.8517 90.6485 18.035C90.6485 14.3017 90.5435 11.9683 90.3335 11.035C90.1468 10.1017 89.9952 9.50666 89.8785 9.25L89.7035 8.9C89.6102 8.80667 89.5635 8.67833 89.5635 8.515C89.5635 8.32833 89.7035 8.17667 89.9835 8.06C91.8035 7.33667 94.1952 6.975 97.1585 6.975C103.389 6.975 106.504 10.9417 106.504 18.875C106.504 21.9783 105.955 24.8133 104.859 27.38C104.415 28.36 103.902 29.2117 103.319 29.935C102.735 30.635 101.965 31.23 101.009 31.72C100.075 32.1867 99.0368 32.42 97.8935 32.42C97.6602 32.3967 97.3568 32.3617 96.9835 32.315C96.6335 32.2683 96.0968 32.0933 95.3735 31.79C94.6735 31.4867 94.1952 31.09 93.9385 30.6C93.0752 31.79 91.8268 32.385 90.1935 32.385ZM117.017 11.945C115.174 14.255 113.844 16.565 113.027 18.875H113.062C116.306 18.875 118.161 18.8867 118.627 18.91C119.117 18.91 119.386 18.8867 119.432 18.84C119.479 18.7933 119.514 18.735 119.537 18.665C119.141 15.795 118.826 13.8467 118.592 12.82C118.359 11.77 118.126 11.245 117.892 11.245C117.659 11.245 117.367 11.4783 117.017 11.945ZM113.902 28.43L114.672 28.29C114.906 28.29 115.022 28.4183 115.022 28.675C115.022 29.4917 114.859 30.18 114.532 30.74C114.206 31.3 113.797 31.6967 113.307 31.93C112.514 32.3267 111.837 32.525 111.277 32.525C110.204 32.525 109.399 32.1283 108.862 31.335C108.326 30.5183 108.057 29.305 108.057 27.695C108.057 26.0617 108.501 23.95 109.387 21.36H107.357C107.101 21.36 106.972 21.2317 106.972 20.975C106.972 20.7183 107.171 20.31 107.567 19.75C107.964 19.1667 108.384 18.875 108.827 18.875H110.402C112.059 15.1883 114.007 12.0033 116.247 9.32C116.831 8.62 117.542 7.96667 118.382 7.36C119.246 6.75333 119.911 6.45 120.377 6.45C120.844 6.45 121.194 6.66 121.427 7.08C122.034 8.06 122.746 11.6417 123.562 17.825C123.842 20.485 124.321 23.2383 124.997 26.085C125.697 28.9083 126.339 30.5533 126.922 31.02C127.062 31.1133 127.132 31.23 127.132 31.37C127.132 31.72 126.631 32.0467 125.627 32.35C124.647 32.6533 123.889 32.805 123.352 32.805C122.839 32.805 122.442 32.735 122.162 32.595C121.882 32.4783 121.707 32.35 121.637 32.21C121.217 31.3 120.797 29.13 120.377 25.7L120.167 24.055C120.074 22.9583 119.981 22.13 119.887 21.57L119.642 21.395L112.327 21.36C112.047 22.55 111.907 23.5883 111.907 24.475C111.907 25.3617 111.931 26.015 111.977 26.435C112.047 26.8317 112.246 27.2633 112.572 27.73C112.899 28.1967 113.342 28.43 113.902 28.43ZM139.179 9.25L139.039 7.955C139.039 7.535 139.576 7.24333 140.649 7.08C141.723 6.89333 142.773 6.8 143.799 6.8C144.826 6.8 145.339 6.975 145.339 7.325C145.339 7.48833 145.223 7.68667 144.989 7.92C144.079 8.87667 142.971 10.44 141.664 12.61C140.381 14.78 139.319 16.7167 138.479 18.42L137.219 20.94C136.799 21.8267 136.589 22.8067 136.589 23.88C136.589 24.93 136.624 25.98 136.694 27.03C136.764 28.0567 136.834 28.9317 136.904 29.655C136.974 30.3783 137.009 30.7983 137.009 30.915C137.009 31.4983 136.473 31.965 135.399 32.315C134.326 32.6883 133.439 32.875 132.739 32.875C132.063 32.875 131.724 32.7467 131.724 32.49L131.829 32.035C132.226 29.9117 132.424 27.3917 132.424 24.475C132.424 23.7517 132.308 22.8533 132.074 21.78L131.969 21.325C130.476 17.2883 129.076 14.3133 127.769 12.4C126.649 10.6967 125.833 9.69333 125.319 9.39L125.004 9.18C124.771 9.04 124.654 8.87667 124.654 8.69C124.654 8.29333 125.261 7.885 126.474 7.465C127.688 7.045 128.598 6.835 129.204 6.835C129.834 6.835 130.254 7.02167 130.464 7.395C132.564 11.7817 134.198 15.3283 135.364 18.035C135.434 18.175 135.528 18.245 135.644 18.245C135.784 18.245 135.936 18.105 136.099 17.825C136.286 17.545 136.554 17.1017 136.904 16.495C137.254 15.8883 137.721 14.815 138.304 13.275C138.888 11.7117 139.179 10.37 139.179 9.25Z" fill="white"/>
<path d="M159.705 21.045L159.67 16.88C159.67 12.75 159.53 10.0083 159.25 8.655C159.203 8.49167 159.18 8.36333 159.18 8.27C159.18 7.87333 159.576 7.535 160.37 7.255C161.163 6.975 161.793 6.835 162.26 6.835C162.726 6.835 162.96 6.975 162.96 7.255C162.96 7.27833 162.936 7.40667 162.89 7.64C162.353 10.51 162.085 15.0717 162.085 21.325C162.085 25.595 162.33 28.6633 162.82 30.53C162.913 30.8333 162.96 30.9967 162.96 31.02C162.96 31.51 162.423 31.9067 161.35 32.21C160.276 32.5367 159.518 32.7 159.075 32.7C158.375 32.7 157.896 32.5367 157.64 32.21C157.126 31.5567 156.286 29.725 155.12 26.715C153.976 23.6817 152.973 20.8583 152.11 18.245L150.78 14.325C150.733 14.2083 150.675 14.15 150.605 14.15C150.511 14.15 150.406 14.2317 150.29 14.395C150.173 16.565 150.115 18.735 150.115 20.905C150.115 23.075 150.126 24.7433 150.15 25.91C150.196 27.0767 150.243 27.9633 150.29 28.57C150.336 29.1767 150.383 29.6667 150.43 30.04C150.476 30.39 150.511 30.6467 150.535 30.81C150.581 30.9733 150.605 31.09 150.605 31.16C150.605 31.6033 150.22 31.9417 149.45 32.175C148.68 32.4317 147.98 32.56 147.35 32.56C146.743 32.56 146.44 32.42 146.44 32.14C146.44 32 146.475 31.825 146.545 31.615C146.615 31.405 146.696 31.1367 146.79 30.81C147.023 29.9933 147.186 28.5117 147.28 26.365C147.373 24.195 147.42 21.7333 147.42 18.98C147.42 16.2033 147.385 14.185 147.315 12.925C147.198 10.8717 146.988 9.495 146.685 8.795C146.615 8.725 146.58 8.63167 146.58 8.515C146.58 8.14167 147.198 7.78 148.435 7.43C149.671 7.08 150.628 6.905 151.305 6.905C152.005 6.905 152.413 6.91667 152.53 6.94C152.856 6.91667 153.055 7.10333 153.125 7.5C153.801 9.95 154.746 12.8317 155.96 16.145C157.196 19.4583 158.293 21.99 159.25 23.74C159.366 23.8567 159.46 23.915 159.53 23.915C159.646 23.915 159.705 22.9583 159.705 21.045Z" fill="white"/>
<circle cx="141.393" cy="9.80311" r="2.6039" fill="#F7D533"/>
<rect x="140.687" y="14.7005" width="1.40573" height="16.2955" fill="white"/>
</svg>
